PathFileType	4	(X/Y/Z)	results/motion.trc
DataRate	CameraRate	NumFrames	NumMarkers	Units	OrigDataRate	OrigDataStartFrame	OrigNumFrames
27	27	9	20	mm	27	154	614
Frame#	Time	NUI_SKELETON_POSITION_HIP_CENTER	NUI_SKELETON_POSITION_HIP_RIGHT	NUI_SKELETON_POSITION_HIP_LEFT	NUI_SKELETON_POSITION_KNEE_RIGHT	NUI_SKELETON_POSITION_KNEE_LEFT	NUI_SKELETON_POSITION_ANKLE_RIGHT	NUI_SKELETON_POSITION_ANKLE_LEFT	NUI_SKELETON_POSITION_FOOT_RIGHT	NUI_SKELETON_POSITION_FOOT_LEFT	NUI_SKELETON_POSITION_SPINE	NUI_SKELETON_POSITION_SHOULDER_RIGHT	NUI_SKELETON_POSITION_SHOULDER_LEFT	NUI_SKELETON_POSITION_ELBOW_RIGHT	NUI_SKELETON_POSITION_ELBOW_LEFT	NUI_SKELETON_POSITION_WRIST_RIGHT	NUI_SKELETON_POSITION_WRIST_LEFT	NUI_SKELETON_POSITION_HAND_RIGHT	NUI_SKELETON_POSITION_HAND_LEFT	NUI_SKELETON_POSITION_SHOULDER_CENTER	NUI_SKELETON_POSITION_HEAD
X1	Y1	Z1	X2	Y2	Z2	X3	Y3	Z3	X4	Y4	Z4	X5	Y5	Z5	X6	Y6	Z6	X7	Y7	Z7	X8	Y8	Z8	X9	Y9	Z9	X10	Y10	Z10	X11	Y11	Z11	X12	Y12	Z12	X13	Y13	Z13	X14	Y14	Z14	X15	Y15	Z15	X16	Y16	Z16	X17	Y17	Z17	X18	Y18	Z18	X19	Y19	Z19	X20	Y20	Z20	
154	5.471000	-85.525192	-106.302559	2887.608051	-3.318697	-188.529640	2886.480808	-168.090522	-190.295205	2874.267817	46.698574	-580.393314	2939.663410	-211.050659	-580.034971	2950.314999	74.693151	-925.379038	2974.196911	-237.412930	-894.235253	2988.130331	77.460296	-999.478340	2931.200027	-239.775017	-939.550340	2922.288179	-87.003037	-41.831817	2926.479101	100.873500	184.756026	2932.409525	-266.617537	179.332301	2920.062065	312.497526	87.004237	2932.774067	-481.142521	100.291677	2924.835205	511.327267	132.176891	2885.088205	-669.653594	154.851258	2852.528334	544.182599	159.576580	2874.783516	-702.430487	175.834730	2845.998526	-87.668285	295.474827	2912.139177	-79.159066	476.253331	2908.519030	
155	5.524000	-85.523561	-106.263332	2887.648344	-3.304807	-188.513786	2886.492491	-168.102130	-190.262079	2874.320745	46.693090	-580.383599	2939.654112	-211.043179	-580.006063	2950.337648	74.675575	-925.358832	2974.147797	-237.391770	-894.196570	2988.113642	77.454828	-999.482930	2931.206942	-239.576399	-939.242542	2921.872377	-86.998276	-41.807644	2926.519394	100.944705	184.777811	2932.396412	-266.633093	179.366022	2920.082331	312.570333	87.111577	2932.762146	-481.239170	100.640260	2924.593210	511.336803	132.244408	2885.088682	-669.687808	155.142754	2852.431297	543.616176	159.343898	2874.815702	-703.813970	177.184582	2845.517874	-87.663420	295.483947	2912.165403	-79.130590	476.258993	2908.496618	
156	5.557000	-85.522406	-106.223628	2887.686729	-3.291192	-188.498035	2886.503220	-168.114617	-190.228626	2874.372244	46.687357	-580.373943	2939.644098	-211.035416	-579.976261	2950.360060	74.662313	-925.344944	2974.112749	-237.368196	-894.141197	2988.093376	77.445649	-999.487042	2931.217194	-239.379331	-938.911259	2921.460390	-86.993948	-41.783594	2926.555872	101.017602	184.799582	2932.381630	-266.649336	179.399922	2920.100451	312.649697	87.223940	2932.745934	-481.343716	101.031631	2924.309254	511.336327	132.429034	2885.092020	-669.728100	155.491412	2852.327824	543.075025	159.184813	2874.844313	-705.348015	178.773552	2844.970465	-87.658860	295.492411	2912.189484	-79.100765	476.264060	2908.471584	
157	5.605000	-85.521132	-106.183670	2887.723207	-3.277379	-188.482195	2886.512518	-168.127194	-190.195590	2874.422550	46.680771	-580.360234	2939.628601	-211.030111	-579.953074	2950.381041	74.647956	-925.336599	2974.082947	-237.348884	-894.101739	2988.081217	77.441871	-999.495625	2931.240797	-239.196390	-938.623250	2921.089649	-86.989813	-41.759420	2926.588774	101.094678	184.822410	2932.363987	-266.669035	179.437026	2920.112133	312.779069	87.419890	2932.707310	-481.458753	101.506457	2923.953295	511.347353	132.908598	2885.112762	-669.739544	156.174645	2852.178574	542.529047	159.148142	2874.880075	-705.760181	179.861352	2844.756365	-87.654211	295.500159	2912.210464	-79.069518	476.268888	2908.441782	
158	5.672000	-85.519768	-106.144190	2887.758017	-3.263276	-188.466460	2886.521339	-168.139637	-190.163255	2874.470949	46.674389	-580.345988	2939.612627	-211.025223	-579.930842	2950.400591	74.632674	-925.328016	2974.050283	-237.331152	-894.063175	2988.067865	77.438444	-999.500871	2931.247473	-239.022002	-938.345790	2920.727253	-86.985879	-41.735746	2926.618576	101.172529	184.844971	2932.344675	-266.690791	179.474086	2920.120239	312.990904	87.769508	2932.652235	-481.617987	102.136321	2923.519850	511.424601	133.544013	2885.121107	-669.775426	157.137677	2851.991415	542.022109	159.319431	2874.935389	-706.113458	181.216404	2844.537973	-87.649830	295.507133	2912.229538	-79.035707	476.271242	2908.404112	
159	5.706000	-85.518606	-106.103234	2887.791157	-3.249084	-188.450605	2886.528730	-168.153584	-190.129593	2874.519825	46.666764	-580.328822	2939.594269	-211.021021	-579.909205	2950.419664	74.617453	-925.306439	2974.007845	-237.315491	-894.034028	2988.060474	77.436283	-999.506295	2931.253433	-238.860562	-938.103676	2920.407295	-86.982027	-41.711327	2926.645041	101.252049	184.867591	2932.322979	-266.717136	179.514140	2920.125723	313.336968	88.309400	2932.587624	-481.902540	103.019930	2922.967672	511.608899	134.373501	2885.101795	-669.933915	158.422276	2851.759911	541.530967	159.635872	2874.970913	-706.665814	183.701858	2844.274521	-87.645240	295.513660	2912.246227	-79.001002	476.272970	2908.364058	
160	5.739000	-85.516982	-106.060669	2887.823343	-3.233732	-188.433558	2886.535645	-168.167561	-190.096110	2874.567986	46.658903	-580.310583	2939.574957	-211.016729	-579.884827	2950.438261	74.601717	-925.282001	2973.959446	-237.299487	-894.005179	2988.053799	77.436022	-999.512672	2931.258917	-238.702700	-937.871397	2920.102119	-86.978018	-41.685872	2926.668644	101.335131	184.894845	2932.300091	-266.746402	179.554924	2920.127153	313.720942	88.949390	2932.517767	-482.388437	104.076281	2922.303915	511.813641	135.425970	2885.085106	-670.259535	160.182878	2851.432800	541.021764	160.283566	2875.024319	-707.159400	186.644211	2843.874216	-87.640598	295.519799	2912.261009	-78.968972	476.276934	2908.325434	
161	5.773000	-85.514702	-106.012359	2887.855053	-3.216561	-188.414231	2886.541367	-168.182179	-190.060392	2874.616623	46.651050	-580.291867	2939.555407	-211.013004	-579.861104	2950.456858	74.584268	-925.254881	2973.907232	-237.281740	-893.970490	2988.045454	77.435508	-999.518812	2931.264877	-238.544807	-937.632918	2919.798851	-86.973757	-41.657355	2926.688671	101.424307	184.928581	2932.275772	-266.781777	179.601103	2920.124769	314.273179	89.940235	2932.404518	-483.140022	105.520897	2921.351671	512.166977	136.752576	2885.092020	-670.836747	162.514538	2850.997448	543.007076	163.120121	2874.868631	-707.681298	190.181449	2843.442440	-87.635808	295.525402	2912.273407	-78.938760	476.280034	2908.288002	
162	5.828000	-85.511878	-105.956398	2887.887478	-3.197561	-188.391566	2886.546612	-168.197870	-190.021396	2874.666214	46.643123	-580.272675	2939.534903	-211.007401	-579.832315	2950.474501	74.570641	-925.228894	2973.864079	-237.262532	-893.931925	2988.032341	77.434875	-999.524951	2931.270599	-238.386124	-937.392533	2919.489145	-86.969078	-41.623592	2926.706314	101.519279	184.968233	2932.249546	-266.822726	179.652691	2920.116901	314.889908	91.133416	2932.254553	-484.095752	107.150465	2920.275688	512.550712	138.745397	2885.124207	-671.508014	165.708721	2850.358725	542.920768	165.001497	2874.863863	-708.244145	194.384620	2842.904806	-87.630793	295.531005	2912.284136	-78.909278	476.283550	2908.249855	
